# xmcd
#
# Track frame offsets:
#	183
#	12313
#	29200
#	45058
#	54355
#	74538
#	89170
#	102980
#	116198
#	129878
#	141878
#	152518
#	165085
#	178005
#	187905
#	199793
#	211438
#	225405
#
# Disc length: 3189
#
# Revision: 2
# Processed by: cddbd v1.5.1PL0 Copyright (c) Steve Scherf et al.
# Submitted via: dBpowerAMP V4.0
# Normalized: r0:DSETVAR1,TDELIM( - ),TSWAP
#
DISCID=f00c7312
DTITLE=Various Artist - Black and Blues: Blue Colors Disc 1
DYEAR=1990
DGENRE=1990
TTITLE0=John Lee Hooker - I'm in the Mood
TTITLE1=Howlin' Wolf - Sittin - On The Top Of The World
TTITLE2=Muddy Waters - Long Distance Call
TTITLE3=Lightin' Hopkins - Coffee House Blues
TTITLE4=Big Bill Broonzy - Louise, Louise Blues
TTITLE5=Champion Jack Dupree - I'm Tired of Moanin'
TTITLE6=Memphis Slim - My Baby
TTITLE7=Jimmy Rogers - Left Me With  A Broken Heart
TTITLE8=Albert King - Bad Luck Blues
TTITLE9=Otis Rush - You Know My Love
TTITLE10=B. B. King - Recession Blues
TTITLE11=Lowell Fulson - It's a Long Time
TTITLE12=J. B. Lenoir - Eisenhower Blues
TTITLE13=Buddy Guy - First Time I met The Blues
TTITLE14=Sonny Boy Williamson - Keep Your Hand out of My Pocket
TTITLE15=Bo Diddly - Bo's Blues
TTITLE16=Little Walter - Blues With A Feeling
TTITLE17=John Brim - Tough Times
EXTD=
EXTT0=
EXTT1=
EXTT2=
EXTT3=
EXTT4=
EXTT5=
EXTT6=
EXTT7=
EXTT8=
EXTT9=
EXTT10=
EXTT11=
EXTT12=
EXTT13=
EXTT14=
EXTT15=
EXTT16=
EXTT17=
PLAYORDER=
